<svg xmlns="http://www.w3.org/2000/svg" xmlns:xlink="http://www.w3.org/1999/xlink" width="1000" zoomAndPan="magnify" viewBox="0 0 750 749.999995" height="1000" preserveAspectRatio="xMidYMid meet" version="1.0"><defs><filter x="0%" y="0%" width="100%" height="100%" id="id1"><feColorMatrix values="0 0 0 0 1 0 0 0 0 1 0 0 0 0 1 0 0 0 1 0" color-interpolation-filters="sRGB"/></filter><g/><mask id="id2"><g filter="url(#id1)"><rect x="-75" width="900" fill="#000000" y="-74.999999" height="899.999994" fill-opacity="0.1686"/></g></mask><clipPath id="id3"><path d="M 0 0.519531 L 341 0.519531 L 341 397 L 0 397 Z M 0 0.519531 " clip-rule="nonzero"/></clipPath><clipPath id="id4"><rect x="0" width="342" y="0" height="397"/></clipPath><mask id="id5"><g filter="url(#id1)"><rect x="-75" width="900" fill="#000000" y="-74.999999" height="899.999994" fill-opacity="0.1686"/></g></mask><clipPath id="id6"><path d="M 0.558594 0 L 158 0 L 158 297.839844 L 0.558594 297.839844 Z M 0.558594 0 " clip-rule="nonzero"/></clipPath><clipPath id="id7"><rect x="0" width="158" y="0" height="298"/></clipPath></defs><path fill="#fbadff" d="M -328.578125 115.644531 C -330.1875 111.363281 -331.523438 106.8125 -332.863281 102.527344 L 33.882812 -264.21875 C 38.167969 -262.878906 42.71875 -261.539062 47 -259.933594 Z M -8.949219 -273.585938 C -14.035156 -274.390625 -19.390625 -274.925781 -24.476562 -275.460938 L -344.375 44.4375 C -343.839844 49.523438 -343.304688 54.878906 -342.5 59.964844 Z M 115.796875 -224.332031 C 112.320312 -226.738281 108.839844 -229.148438 105.359375 -231.289062 L -300.203125 174.269531 C -298.0625 177.75 -295.652344 181.230469 -293.242188 184.710938 Z M 71.628906 -249.761719 C 67.613281 -251.636719 63.597656 -253.507812 59.582031 -255.117188 L -323.761719 128.226562 C -322.15625 132.242188 -320.28125 136.257812 -318.40625 140.273438 Z M 94.382812 -237.714844 C 90.636719 -239.855469 86.886719 -242 83.140625 -243.871094 L -313.054688 152.320312 C -311.179688 156.066406 -309.039062 159.816406 -306.894531 163.5625 Z M -169.835938 -252.171875 C -182.417969 -246.550781 -194.730469 -240.125 -206.507812 -232.898438 L -301.808594 -137.597656 C -309.304688 -125.816406 -315.730469 -113.503906 -321.082031 -100.921875 Z M -58.203125 -276.800781 L -345.710938 10.707031 C -345.710938 16.597656 -345.710938 22.21875 -345.445312 28.109375 L -41.070312 -276.53125 C -46.695312 -276.800781 -52.582031 -276.800781 -58.203125 -276.800781 Z M 241.882812 15.527344 L -53.386719 310.796875 C -47.496094 310.796875 -41.339844 310.796875 -35.449219 310.261719 L 241.347656 33.460938 C 241.617188 27.574219 241.882812 21.414062 241.882812 15.527344 Z M 135.609375 -209.070312 C 132.394531 -211.75 129.183594 -214.425781 125.972656 -216.835938 L -285.746094 194.882812 C -283.339844 198.097656 -280.660156 201.308594 -277.984375 204.519531 Z M -76.675781 -275.730469 C -83.367188 -275.191406 -89.792969 -274.390625 -96.484375 -273.320312 L -342.230469 -27.574219 C -343.304688 -20.878906 -344.105469 -14.457031 -344.640625 -7.761719 Z M -117.902344 -269.304688 C -125.933594 -267.429688 -133.964844 -265.289062 -141.996094 -262.613281 L -331.792969 -73.082031 C -334.199219 -65.050781 -336.609375 -57.289062 -338.484375 -48.988281 Z M 19.960938 -267.964844 C 15.144531 -269.035156 10.59375 -270.105469 5.773438 -271.175781 L -340.089844 74.6875 C -339.019531 79.507812 -337.949219 84.058594 -336.878906 88.875 Z M 236.53125 73.082031 C 237.867188 66.121094 238.9375 59.429688 239.742188 52.46875 L -16.445312 308.65625 C -9.484375 307.851562 -2.523438 306.78125 4.167969 305.441406 Z M 241.347656 -1.339844 C 241.082031 -6.691406 240.546875 -12.046875 240.011719 -17.402344 L -86.3125 308.65625 C -80.960938 309.191406 -75.605469 309.726562 -70.25 309.992188 Z M 237.601562 -32.660156 C 236.796875 -37.476562 235.726562 -42.296875 234.65625 -47.113281 L -116.296875 303.570312 C -111.476562 304.640625 -106.65625 305.710938 -101.839844 306.511719 Z M 153.8125 -192.742188 C 150.867188 -195.6875 147.921875 -198.363281 144.976562 -201.308594 L -269.953125 213.621094 C -267.277344 216.566406 -264.332031 219.511719 -261.386719 222.457031 Z M 170.945312 208.269531 C 185.667969 191.136719 197.980469 172.933594 208.152344 153.660156 L 84.746094 277.066406 C 104.019531 266.894531 122.222656 254.582031 139.355469 239.855469 Z M 231.175781 -61.035156 C 229.835938 -65.585938 228.5 -69.871094 227.160156 -74.421875 L -143.332031 296.074219 C -138.78125 297.410156 -134.5 298.75 -129.949219 300.089844 Z M 222.609375 122.070312 C 225.820312 113.503906 228.765625 104.9375 231.175781 96.101562 L 27.191406 300.089844 C 36.023438 297.679688 44.589844 294.734375 53.15625 291.523438 Z M 186.203125 -155.265625 C 183.792969 -158.476562 181.382812 -161.957031 178.707031 -165.167969 L -234.082031 247.351562 C -230.871094 250.03125 -227.390625 252.4375 -224.175781 254.847656 Z M 222.609375 -87.269531 C 221.003906 -91.550781 219.398438 -95.566406 217.523438 -99.582031 L -168.765625 286.703125 C -164.75 288.578125 -160.464844 290.183594 -156.449219 291.789062 Z M 170.675781 -174.804688 C 168 -178.019531 165.324219 -180.964844 162.378906 -183.910156 L -252.820312 231.289062 C -249.875 234.234375 -246.664062 236.914062 -243.71875 239.589844 Z M 199.855469 -134.382812 C 197.714844 -137.863281 195.574219 -141.613281 193.164062 -145.09375 L -214.003906 262.074219 C -210.523438 264.484375 -207.042969 266.625 -203.296875 268.769531 Z M 212.167969 -111.628906 C 210.296875 -115.378906 208.421875 -119.394531 206.28125 -123.140625 L -192.054688 275.191406 C -188.304688 277.335938 -184.558594 279.207031 -180.542969 281.082031 Z M 212.167969 -111.628906 " fill-opacity="1" fill-rule="nonzero"/><g mask="url(#id2)"><g transform="matrix(1, 0, 0, 1, 0, 353)"><g clip-path="url(#id4)"><g clip-path="url(#id3)"><path fill="#adf3ff" d="M 118.230469 0.75 C -4.789062 0.75 -104.519531 100.480469 -104.519531 223.5 C -104.519531 346.523438 -4.789062 446.25 118.230469 446.25 C 241.253906 446.25 340.980469 346.523438 340.980469 223.5 C 340.980469 100.480469 241.253906 0.75 118.230469 0.75 " fill-opacity="1" fill-rule="nonzero"/></g></g></g></g><path fill="#fbadff" d="M 56.535156 451.65625 C -136.074219 451.65625 -293.289062 294.441406 -293.289062 101.3125 C -293.289062 -91.300781 -136.074219 -248.511719 56.535156 -248.511719 C 249.667969 -248.511719 406.359375 -91.300781 406.359375 101.3125 C 406.882812 294.441406 249.667969 451.65625 56.535156 451.65625 Z M 56.535156 -55.902344 C -29.878906 -55.902344 -100.675781 14.894531 -100.675781 101.3125 C -100.675781 187.726562 -29.878906 258.523438 56.535156 258.523438 C 142.953125 258.523438 213.75 187.726562 213.75 101.3125 C 213.75 14.894531 143.472656 -55.902344 56.535156 -55.902344 Z M 56.535156 -55.902344 " fill-opacity="1" fill-rule="nonzero"/><g fill="#f4ffad" fill-opacity="1"><g transform="translate(78.828995, 434.038757)"><g><path d="M 76.265625 8 C 68.566406 8 62.59375 4.691406 58.34375 -1.921875 C 55.976562 -5.773438 54.796875 -9.28125 54.796875 -12.4375 C 54.796875 -18.363281 58.796875 -23.644531 66.796875 -28.28125 L 71.234375 -30.359375 C 75.773438 -32.140625 79.398438 -34.015625 82.109375 -35.984375 C 84.828125 -37.960938 86.1875 -40.53125 86.1875 -43.6875 C 86.1875 -49.113281 78.585938 -51.828125 63.390625 -51.828125 C 57.953125 -51.828125 52.175781 -51.582031 46.0625 -51.09375 C 44.1875 -50.988281 42.257812 -50.882812 40.28125 -50.78125 C 38.300781 -50.6875 36.328125 -50.640625 34.359375 -50.640625 C 27.835938 -50.640625 22.722656 -52.269531 19.015625 -55.53125 C 15.316406 -58.789062 13.46875 -63.628906 13.46875 -70.046875 C 13.46875 -74.890625 14.0625 -78.664062 15.25 -81.375 C 16.4375 -84.09375 18.363281 -86.117188 21.03125 -87.453125 C 23.695312 -88.785156 27.546875 -89.796875 32.578125 -90.484375 C 40.378906 -91.566406 48.867188 -92.109375 58.046875 -92.109375 C 68.117188 -92.109375 77.894531 -91.488281 87.375 -90.25 C 96.851562 -89.019531 104.703125 -87.125 110.921875 -84.5625 C 119.210938 -81.101562 125.207031 -76.09375 128.90625 -69.53125 C 132.613281 -62.96875 134.46875 -55.488281 134.46875 -47.09375 C 134.46875 -41.5625 133.925781 -36.625 132.84375 -32.28125 C 129.289062 -15.5 115.070312 -3.007812 90.1875 5.1875 C 84.757812 7.0625 80.117188 8 76.265625 8 Z M 76.265625 8 "/></g></g></g><g fill="#adffd8" fill-opacity="1"><g transform="translate(226.913829, 434.038757)"><g><path d="M 95.8125 -21.625 C 88.507812 -21.625 82.34375 -25.71875 77.3125 -33.90625 C 69.40625 -33.320312 62.414062 -32.878906 56.34375 -32.578125 C 50.269531 -32.285156 45.753906 -32.085938 42.796875 -31.984375 C 37.660156 -31.984375 33.335938 -32.75 29.828125 -34.28125 C 26.328125 -35.8125 23.738281 -38.503906 22.0625 -42.359375 C 21.46875 -44.035156 21.171875 -45.566406 21.171875 -46.953125 C 21.171875 -50.203125 22.378906 -53.207031 24.796875 -55.96875 C 27.222656 -58.738281 30.609375 -60.816406 34.953125 -62.203125 C 37.117188 -62.890625 40.519531 -63.578125 45.15625 -64.265625 C 49.800781 -64.960938 55.035156 -65.554688 60.859375 -66.046875 C 60.671875 -66.441406 60.425781 -67.035156 60.125 -67.828125 C 59.832031 -68.617188 59.488281 -69.257812 59.09375 -69.75 L 37.765625 -68.859375 C 32.234375 -68.765625 27.664062 -69.429688 24.0625 -70.859375 C 20.457031 -72.296875 17.769531 -75.085938 16 -79.234375 C 15.40625 -80.910156 15.109375 -82.441406 15.109375 -83.828125 C 15.109375 -87.078125 16.316406 -90.082031 18.734375 -92.84375 C 21.148438 -95.613281 24.53125 -97.691406 28.875 -99.078125 C 32.132812 -100.265625 39.144531 -101.347656 49.90625 -102.328125 C 50.59375 -109.242188 55.28125 -113.585938 63.96875 -115.359375 C 66.9375 -115.859375 69.359375 -116.109375 71.234375 -116.109375 C 75.085938 -116.109375 78.242188 -115.21875 80.703125 -113.4375 C 83.171875 -111.664062 85.492188 -108.800781 87.671875 -104.84375 C 90.140625 -104.945312 93.492188 -105 97.734375 -105 C 103.367188 -105 107.320312 -104.847656 109.59375 -104.546875 C 114.53125 -103.660156 118.523438 -102.054688 121.578125 -99.734375 C 124.640625 -97.421875 126.367188 -94.289062 126.765625 -90.34375 C 126.867188 -89.644531 126.921875 -88.753906 126.921875 -87.671875 C 126.921875 -83.921875 125.957031 -81.082031 124.03125 -79.15625 C 122.101562 -77.226562 119.410156 -75.867188 115.953125 -75.078125 C 112.503906 -74.296875 107.664062 -73.609375 101.4375 -73.015625 L 103.375 -68.125 C 112.550781 -68.414062 119.78125 -67.273438 125.0625 -64.703125 C 130.34375 -62.140625 132.984375 -57.601562 132.984375 -51.09375 C 132.984375 -47.539062 132.046875 -44.773438 130.171875 -42.796875 C 128.296875 -40.828125 126.097656 -39.46875 123.578125 -38.71875 C 121.066406 -37.976562 117.882812 -37.316406 114.03125 -36.734375 C 114.226562 -35.347656 114.328125 -34.359375 114.328125 -33.765625 C 114.328125 -31.492188 113.632812 -29.539062 112.25 -27.90625 C 110.875 -26.28125 108.40625 -24.78125 104.84375 -23.40625 C 101.59375 -22.21875 98.582031 -21.625 95.8125 -21.625 Z M 77.75 16 C 72.71875 15.894531 65.335938 14.679688 55.609375 12.359375 C 45.878906 10.046875 38.203125 7.304688 32.578125 4.140625 C 28.734375 2.066406 25.847656 -0.25 23.921875 -2.8125 C 21.992188 -5.382812 21.03125 -8.097656 21.03125 -10.953125 C 21.03125 -13.328125 21.570312 -15.550781 22.65625 -17.625 C 24.4375 -21.476562 26.832031 -24.191406 29.84375 -25.765625 C 32.851562 -27.347656 36.378906 -28.140625 40.421875 -28.140625 L 43.546875 -27.984375 C 47.390625 -27.691406 52.46875 -26.609375 58.78125 -24.734375 C 65.101562 -22.859375 71.226562 -20.785156 77.15625 -18.515625 C 83.082031 -16.242188 87.03125 -14.46875 89 -13.1875 C 94.925781 -9.53125 97.890625 -5.035156 97.890625 0.296875 C 97.890625 2.566406 97.347656 4.9375 96.265625 7.40625 C 94.878906 10.863281 92.703125 13.207031 89.734375 14.4375 C 86.773438 15.675781 82.78125 16.195312 77.75 16 Z M 77.75 16 "/></g></g></g><g fill="#adf3ff" fill-opacity="1"><g transform="translate(374.998665, 434.038757)"><g><path d="M 47.53125 15.109375 C 42.007812 15.109375 36.65625 14.117188 31.46875 12.140625 C 26.28125 10.171875 21.765625 7.160156 17.921875 3.109375 C 14.859375 -0.046875 12.507812 -3.84375 10.875 -8.28125 C 9.25 -12.726562 8.4375 -17.273438 8.4375 -21.921875 C 8.4375 -27.835938 9.742188 -33.4375 12.359375 -38.71875 C 14.984375 -44.007812 18.664062 -48.179688 23.40625 -51.234375 C 31.5 -56.367188 42.109375 -59.53125 55.234375 -60.71875 L 54.5 -71.53125 C 46.800781 -71.226562 40.925781 -71.078125 36.875 -71.078125 C 34.800781 -71.078125 33.171875 -71.101562 31.984375 -71.15625 C 30.804688 -71.207031 30.066406 -71.234375 29.765625 -71.234375 C 25.617188 -71.128906 22.359375 -72.457031 19.984375 -75.21875 C 17.617188 -77.988281 16.4375 -82.085938 16.4375 -87.515625 C 16.4375 -91.671875 17.300781 -94.929688 19.03125 -97.296875 C 20.757812 -99.671875 23.5 -101.5 27.25 -102.78125 C 30.113281 -103.863281 33.765625 -104.703125 38.203125 -105.296875 C 42.648438 -105.890625 47.34375 -106.1875 52.28125 -106.1875 C 57.507812 -106.1875 62.367188 -105.789062 66.859375 -105 C 71.359375 -104.207031 74.9375 -102.972656 77.59375 -101.296875 C 80.457031 -99.316406 82.851562 -94.351562 84.78125 -86.40625 C 86.707031 -78.457031 87.867188 -69.203125 88.265625 -58.640625 L 97.734375 -56.875 C 99.421875 -62 101.375 -65.722656 103.59375 -68.046875 C 105.8125 -70.367188 108.75 -71.53125 112.40625 -71.53125 C 113.882812 -71.53125 115.859375 -71.28125 118.328125 -70.78125 C 122.566406 -69.800781 125.597656 -68.25 127.421875 -66.125 C 129.253906 -64 130.171875 -61.160156 130.171875 -57.609375 C 130.171875 -55.140625 129.773438 -52.175781 128.984375 -48.71875 C 132.148438 -47.726562 134.671875 -46.023438 136.546875 -43.609375 C 138.421875 -41.191406 139.359375 -38.351562 139.359375 -35.09375 C 139.359375 -33.71875 139.007812 -31.796875 138.3125 -29.328125 C 136.9375 -24.878906 135.132812 -21.617188 132.90625 -19.546875 C 130.6875 -17.472656 127.851562 -16.4375 124.40625 -16.4375 C 123.90625 -16.4375 122.863281 -16.535156 121.28125 -16.734375 C 119.3125 -10.710938 117.335938 -6.34375 115.359375 -3.625 C 113.390625 -0.914062 110.726562 0.4375 107.375 0.4375 C 106.082031 0.4375 104.203125 0.09375 101.734375 -0.59375 C 97.296875 -1.976562 94.210938 -3.804688 92.484375 -6.078125 C 90.753906 -8.347656 89.890625 -11.304688 89.890625 -14.953125 C 89.890625 -17.328125 90.234375 -20.6875 90.921875 -25.03125 L 86.640625 -26.0625 C 84.859375 -14.414062 82.09375 -5.429688 78.34375 0.890625 C 75.675781 5.234375 71.523438 8.6875 65.890625 11.25 C 60.265625 13.820312 54.144531 15.109375 47.53125 15.109375 Z M 46.0625 -12.140625 C 48.53125 -12.140625 50.921875 -13.222656 53.234375 -15.390625 C 55.554688 -17.566406 56.960938 -20.285156 57.453125 -23.546875 C 57.648438 -26.210938 57.15625 -28.53125 55.96875 -30.5 C 54.789062 -32.476562 52.921875 -33.421875 50.359375 -33.328125 C 50.160156 -33.328125 49.6875 -33.226562 48.9375 -33.03125 C 48.195312 -32.832031 47.40625 -32.382812 46.5625 -31.6875 C 45.726562 -31 45.113281 -30.015625 44.71875 -28.734375 C 43.632812 -30.304688 42.109375 -31.09375 40.140625 -31.09375 C 39.640625 -31.09375 39.21875 -31.039062 38.875 -30.9375 C 38.53125 -30.84375 38.304688 -30.796875 38.203125 -30.796875 C 36.429688 -30.304688 35.097656 -29.441406 34.203125 -28.203125 C 33.316406 -26.972656 32.875 -25.617188 32.875 -24.140625 C 32.875 -22.265625 33.414062 -20.535156 34.5 -18.953125 C 35.882812 -16.785156 37.660156 -15.109375 39.828125 -13.921875 C 42.003906 -12.734375 44.082031 -12.140625 46.0625 -12.140625 Z M 46.0625 -12.140625 "/></g></g></g><g fill="#adb3ff" fill-opacity="1"><g transform="translate(523.083497, 434.038757)"><g><path d="M 46.203125 11.703125 C 41.660156 11.703125 37.269531 11.160156 33.03125 10.078125 C 25.519531 8.296875 19.765625 4.070312 15.765625 -2.59375 C 11.773438 -9.257812 9.78125 -16.6875 9.78125 -24.875 C 9.78125 -29.71875 10.46875 -34.210938 11.84375 -38.359375 C 13.226562 -42.503906 15.203125 -45.859375 17.765625 -48.421875 C 24.972656 -55.628906 33.269531 -60.367188 42.65625 -62.640625 C 42.457031 -63.429688 42.257812 -64.195312 42.0625 -64.9375 C 41.863281 -65.675781 41.664062 -66.34375 41.46875 -66.9375 C 34.351562 -66.9375 28.820312 -67.332031 24.875 -68.125 C 20.925781 -68.914062 17.914062 -70.59375 15.84375 -73.15625 C 13.769531 -75.726562 12.734375 -79.628906 12.734375 -84.859375 C 12.734375 -89.691406 13.671875 -93.367188 15.546875 -95.890625 C 17.421875 -98.410156 20.0625 -100.085938 23.46875 -100.921875 C 26.875 -101.765625 31.488281 -102.332031 37.3125 -102.625 C 38.5 -105.195312 40.398438 -107.34375 43.015625 -109.0625 C 45.640625 -110.789062 48.875 -112.003906 52.71875 -112.703125 C 54.300781 -112.898438 55.488281 -113 56.28125 -113 C 59.726562 -113 62.832031 -112.132812 65.59375 -110.40625 C 68.363281 -108.675781 70.441406 -106.332031 71.828125 -103.375 L 76.859375 -103.375 C 82.878906 -103.375 87.59375 -102.976562 91 -102.1875 C 94.40625 -101.394531 97.019531 -99.8125 98.84375 -97.4375 C 100.675781 -95.070312 101.59375 -91.570312 101.59375 -86.9375 C 101.59375 -80.125 99.765625 -75.382812 96.109375 -72.71875 C 92.460938 -70.050781 86.984375 -68.617188 79.671875 -68.421875 L 80.5625 -62.34375 C 90.332031 -61.457031 99.140625 -58.742188 106.984375 -54.203125 C 114.835938 -49.660156 120.59375 -43.488281 124.25 -35.6875 C 126.226562 -31.445312 127.21875 -26.410156 127.21875 -20.578125 C 127.21875 -14.753906 126.273438 -9.078125 124.390625 -3.546875 C 122.515625 1.972656 120.050781 6.21875 117 9.1875 C 115.3125 10.863281 112.644531 11.703125 109 11.703125 C 104.945312 11.703125 101.390625 10.863281 98.328125 9.1875 C 92.503906 6.019531 89.59375 2.164062 89.59375 -2.375 C 89.59375 -4.25 90.382812 -6.863281 91.96875 -10.21875 C 92.757812 -11.5 93.15625 -13.03125 93.15625 -14.8125 C 93.15625 -17.28125 92.265625 -19.523438 90.484375 -21.546875 C 88.703125 -23.566406 86.332031 -25.125 83.375 -26.21875 C 82.488281 -14.164062 78.710938 -4.832031 72.046875 1.78125 C 65.378906 8.394531 56.765625 11.703125 46.203125 11.703125 Z M 119.0625 -54.5 C 115.90625 -54.5 113.390625 -55.039062 111.515625 -56.125 C 108.847656 -57.507812 106.597656 -59.878906 104.765625 -63.234375 C 102.941406 -66.585938 102.03125 -70.390625 102.03125 -74.640625 C 102.03125 -78.097656 103.066406 -81.179688 105.140625 -83.890625 C 107.210938 -86.609375 109.878906 -87.96875 113.140625 -87.96875 C 114.617188 -87.96875 116.101562 -87.671875 117.59375 -87.078125 C 117.59375 -87.179688 118.179688 -86.835938 119.359375 -86.046875 C 120.546875 -85.253906 121.554688 -84.210938 122.390625 -82.921875 C 123.234375 -81.640625 123.554688 -80.113281 123.359375 -78.34375 C 125.035156 -79.53125 126.863281 -80.125 128.84375 -80.125 C 130.226562 -80.125 131.488281 -79.847656 132.625 -79.296875 C 133.757812 -78.753906 134.328125 -78.4375 134.328125 -78.34375 C 137.085938 -76.164062 138.46875 -73.597656 138.46875 -70.640625 C 138.46875 -67.179688 136.738281 -63.726562 133.28125 -60.28125 C 129.4375 -56.425781 124.695312 -54.5 119.0625 -54.5 Z M 46.796875 -13.46875 C 47.984375 -13.46875 49.019531 -13.617188 49.90625 -13.921875 C 51.78125 -14.710938 53.359375 -16.09375 54.640625 -18.0625 C 55.929688 -20.039062 56.578125 -22.3125 56.578125 -24.875 C 56.578125 -27.144531 56.007812 -29.09375 54.875 -30.71875 C 53.738281 -32.351562 52.179688 -33.171875 50.203125 -33.171875 C 49.410156 -33.171875 48.867188 -33.125 48.578125 -33.03125 C 48.378906 -33.03125 47.984375 -32.878906 47.390625 -32.578125 C 46.796875 -32.285156 46.175781 -31.769531 45.53125 -31.03125 C 44.894531 -30.289062 44.523438 -29.273438 44.421875 -27.984375 C 43.441406 -28.972656 42.304688 -29.46875 41.015625 -29.46875 C 40.328125 -29.46875 39.710938 -29.394531 39.171875 -29.25 C 38.628906 -29.101562 38.257812 -28.976562 38.0625 -28.875 C 35.789062 -27.6875 34.65625 -25.863281 34.65625 -23.40625 C 34.65625 -21.226562 35.441406 -19.347656 37.015625 -17.765625 C 38.398438 -16.390625 39.957031 -15.328125 41.6875 -14.578125 C 43.414062 -13.835938 45.117188 -13.46875 46.796875 -13.46875 Z M 46.796875 -13.46875 "/></g></g></g><path fill="#ffaddc" d="M 724.933594 935.628906 C 719.253906 946.015625 711.402344 955.214844 701.386719 963.226562 C 661.796875 994.417969 604.574219 987.847656 573.3125 948.25 C 489.839844 843.535156 477.613281 700.207031 541.78125 582.9375 C 605.949219 465.671875 733.257812 398.699219 866.691406 412.113281 C 916.894531 417.09375 953.710938 461.980469 948.355469 511.902344 C 943.429688 562.0625 898.554688 598.796875 848.585938 593.382812 C 788.683594 587.59375 731.003906 617.882812 702.117188 670.675781 C 673.230469 723.46875 679.054688 787.945312 716.222656 835.273438 C 739.6875 864.421875 741.984375 904.472656 724.933594 935.628906 Z M 724.933594 935.628906 " fill-opacity="1" fill-rule="nonzero"/><g mask="url(#id5)"><g transform="matrix(1, 0, 0, 1, 592, -0.000000000000042435)"><g clip-path="url(#id7)"><g clip-path="url(#id6)"><path fill="#bdffad" d="M 223.398438 -147.75 C 100.378906 -147.75 0.648438 -48.019531 0.648438 75 C 0.648438 198.019531 100.378906 297.75 223.398438 297.75 C 346.421875 297.75 446.148438 198.019531 446.148438 75 C 446.148438 -48.019531 346.421875 -147.75 223.398438 -147.75 " fill-opacity="1" fill-rule="nonzero"/></g></g></g></g></svg>